<?xml version="1.0" encoding="utf-8"?>
<!-- Generator: Adobe Illustrator 24.3.0, SVG Export Plug-In . SVG Version: 6.00 Build 0)  -->
<svg version="1.1" xmlns="http://www.w3.org/2000/svg" xmlns:xlink="http://www.w3.org/1999/xlink" x="0px" y="0px"
	 viewBox="0 0 190 28" style="enable-background:new 0 0 190 28;" xml:space="preserve">
<style type="text/css">
	.st0{font-family:'Montserrat-SemiBold';}
	.st1{font-size:23px;}
</style>
<g id="Layer_2">
</g>
<g id="Layer_1">
	<text transform="matrix(1 0 0 1 -1.9062 21.5625)" class="st0 st1">NICKLAS </text>
	<rect x="146.28" y="-38.19" style="fill:none;" width="35.94" height="0"/>
	<g>
		<polygon points="114.75,15.75 120.8,15.75 117.76,8.71 		"/>
		<path d="M157.22,8.93c-0.9-0.45-1.94-0.68-3.12-0.68h-3.91v11.04h3.91c1.18,0,2.22-0.23,3.12-0.68c0.9-0.45,1.59-1.1,2.07-1.93
			c0.48-0.84,0.72-1.81,0.72-2.91s-0.24-2.07-0.72-2.91C158.8,10.03,158.11,9.39,157.22,8.93z"/>
		<path d="M106,0v28h84V0H106z M123.39,21.82l-1.61-3.73h-8.05l-1.59,3.73h-3.08l7.25-16.1h2.94l7.27,16.1H123.39z M142.88,21.82
			h-2.46l-8.88-10.9v10.9h-2.97V5.72h2.46l8.88,10.9V5.72h2.97V21.82z M161.92,17.99c-0.74,1.22-1.77,2.16-3.1,2.83s-2.86,1-4.58,1
			h-7.04V5.72h7.04c1.72,0,3.24,0.33,4.58,1s2.37,1.61,3.1,2.83c0.74,1.22,1.1,2.63,1.1,4.22S162.66,16.78,161.92,17.99z
			 M169.19,21.82h-2.99V5.72h2.99V21.82z M185.61,21.82h-12.07V5.72h11.75v2.51h-8.76v4.19h7.77v2.46h-7.77v4.44h9.08V21.82z"/>
	</g>
</g>
</svg>
