<svg xmlns="http://www.w3.org/2000/svg" viewBox="0 0 191.91 66.19"><defs><style>.cls-1{font-size:23px;font-family:Montserrat-SemiBold, Montserrat;font-weight:600;}.cls-1,.cls-4{fill:#fff;}.cls-2{letter-spacing:0em;}.cls-3{fill:#000;}</style></defs><g id="Layer_1" data-name="Layer 1"><text class="cls-1" transform="translate(0 59.75)">NICK<tspan class="cls-2" x="59.45" y="0">L</tspan><tspan x="73.35" y="0">AS</tspan><tspan class="cls-3" x="105.04" y="0"> </tspan></text><text x="-3.09" y="33.19"/><polygon class="cls-4" points="116.65 53.94 122.7 53.94 119.67 46.9 116.65 53.94"/><path class="cls-4" d="M162.22,13.93a6.89,6.89,0,0,0-3.12-.68h-3.91v11h3.91a6.89,6.89,0,0,0,3.12-.67,5,5,0,0,0,2.07-1.94,5.71,5.71,0,0,0,.72-2.91,5.76,5.76,0,0,0-.72-2.91A5,5,0,0,0,162.22,13.93Z" transform="translate(-3.09 33.19)"/><path class="cls-4" d="M111,5V33h84V5Zm17.39,21.82-1.61-3.72h-8l-1.58,3.72h-3.08l7.24-16.1h2.94l7.27,16.1Zm19.49,0h-2.47l-8.87-10.9v10.9h-3V10.72H136l8.88,10.91V10.72h3Zm19-3.83a7.36,7.36,0,0,1-3.11,2.83,10,10,0,0,1-4.57,1h-7V10.72h7a10.17,10.17,0,0,1,4.57,1,7.42,7.42,0,0,1,3.11,2.83,8,8,0,0,1,1.1,4.22A7.93,7.93,0,0,1,166.92,23Zm7.27,3.83h-3V10.72h3Zm16.42,0H178.53V10.72h11.76v2.51h-8.77v4.19h7.78v2.46h-7.78v4.44h9.09Z" transform="translate(-3.09 33.19)"/><text x="-3.09" y="33.19"/></g></svg>